<svg
   xmlns="http://www.w3.org/2000/svg"
   width="141"
   height="40"
   viewBox="0 0 141 40">
  <path
     d="M 135.778,0 H 5.22222 C 2.33807,0 0,2.23858 0,5 v 30 c 0,2.7614 2.33807,5 5.22222,5 H 135.778 C 138.662,40 141,37.7614 141,35 V 5 c 0,-2.76142 -2.338,-5 -5.222,-5 z"
     id="path2"
     style="fill:#000000" />
  <path
     d="m 71.432,21.8377 c -0.8833,0.0021 -1.7461,0.2665 -2.4793,0.7597 -0.7333,0.4932 -1.304,1.1931 -1.6401,2.0113 -0.3361,0.8181 -0.4224,1.7177 -0.2481,2.5849 0.1744,0.8673 0.6016,1.6633 1.2276,2.2874 0.626,0.6241 1.4227,1.0482 2.2894,1.2188 0.8667,0.1705 1.7644,0.0799 2.5796,-0.2606 0.8152,-0.3405 1.5114,-0.9154 2.0003,-1.6522 0.489,-0.7367 0.7489,-1.6021 0.7468,-2.4868 0.0086,-0.5902 -0.1015,-1.176 -0.3237,-1.7227 -0.2222,-0.5466 -0.5519,-1.0429 -0.9696,-1.4593 -0.4177,-0.4164 -0.9147,-0.7443 -1.4615,-0.9643 -0.5468,-0.22 -1.1323,-0.3275 -1.7214,-0.3162 z m 0,7.1715 c -0.5414,0.0379 -1.0816,-0.0881 -1.5505,-0.3618 -0.4689,-0.2737 -0.8447,-0.6824 -1.0787,-1.1728 -0.2339,-0.4905 -0.3151,-1.0401 -0.2331,-1.5774 0.0821,-0.5373 0.3236,-1.0375 0.6933,-1.4355 0.3696,-0.398 0.8502,-0.6754 1.3793,-0.7962 0.5292,-0.1207 1.0823,-0.0793 1.5876,0.119 0.5053,0.1983 0.9394,0.5443 1.2457,0.9929 0.3064,0.4487 0.471,0.9792 0.4723,1.5228 0.0169,0.3444 -0.0353,0.6887 -0.1533,1.0127 -0.1181,0.3239 -0.2998,0.6208 -0.5342,0.8733 -0.2345,0.2525 -0.5171,0.4554 -0.8311,0.5967 -0.3141,0.1414 -0.6532,0.2183 -0.9973,0.2263 z m -9.7703,-7.1715 c -0.8832,0.0021 -1.746,0.2665 -2.4793,0.7597 -0.7332,0.4932 -1.304,1.1931 -1.6401,2.0113 -0.336,0.8181 -0.4224,1.7177 -0.248,2.5849 0.1743,0.8673 0.6015,1.6633 1.2275,2.2874 0.6261,0.6241 1.4228,1.0482 2.2895,1.2188 0.8666,0.1705 1.7644,0.0799 2.5796,-0.2606 0.8152,-0.3405 1.5113,-0.9154 2.0003,-1.6522 0.489,-0.7367 0.7489,-1.6021 0.7468,-2.4868 0.0085,-0.5902 -0.1016,-1.176 -0.3237,-1.7227 -0.2222,-0.5466 -0.552,-1.0429 -0.9696,-1.4593 -0.4177,-0.4164 -0.9147,-0.7443 -1.4616,-0.9643 -0.5468,-0.22 -1.1322,-0.3275 -1.7214,-0.3162 z m 0,7.1715 c -0.5414,0.0379 -1.0816,-0.0881 -1.5505,-0.3618 -0.4688,-0.2737 -0.8447,-0.6824 -1.0786,-1.1728 -0.234,-0.4905 -0.3152,-1.0401 -0.2331,-1.5774 0.0821,-0.5373 0.3236,-1.0375 0.6932,-1.4355 0.3697,-0.398 0.8503,-0.6754 1.3794,-0.7962 0.5291,-0.1207 1.0823,-0.0793 1.5876,0.119 0.5053,0.1983 0.9393,0.5443 1.2457,0.9929 0.3064,0.4487 0.4709,0.9792 0.4723,1.5228 0.0168,0.3444 -0.0353,0.6887 -0.1534,1.0127 -0.1181,0.3239 -0.2997,0.6208 -0.5342,0.8733 -0.2345,0.2525 -0.5171,0.4554 -0.8311,0.5967 -0.314,0.1414 -0.6531,0.2183 -0.9973,0.2263 z m -11.6152,-5.796 v 1.89 h 4.5286 c -0.071,0.8902 -0.4404,1.7302 -1.0483,2.3835 -0.4542,0.4636 -1.0006,0.8265 -1.6038,1.0653 -0.6031,0.2387 -1.2496,0.348 -1.8975,0.3207 -1.3346,0 -2.6144,-0.531 -3.5581,-1.4762 -0.9437,-0.9452 -1.4738,-2.2271 -1.4738,-3.5638 0,-1.3367 0.5301,-2.6186 1.4738,-3.5638 0.9437,-0.9452 2.2235,-1.4762 3.5581,-1.4762 1.2794,-0.019 2.5148,0.4676 3.4384,1.3545 l 1.3314,-1.3335 c -0.6248,-0.619 -1.3667,-1.1068 -2.1821,-1.4349 -0.8154,-0.3282 -1.6881,-0.49 -2.5667,-0.4761 -0.932,-0.0363 -1.8617,0.1162 -2.7334,0.4483 -0.8717,0.3322 -1.6675,0.8372 -2.3397,1.4848 -0.6722,0.6476 -1.2069,1.4244 -1.5722,2.2839 -0.3653,0.8596 -0.5535,1.7841 -0.5535,2.7183 0,0.9341 0.1882,1.8587 0.5535,2.7182 0.3653,0.8595 0.9,1.6364 1.5722,2.284 0.6722,0.6475 1.468,1.1525 2.3397,1.4847 0.8717,0.3322 1.8014,0.4846 2.7334,0.4483 0.8967,0.0359 1.7909,-0.1186 2.6238,-0.4534 0.8329,-0.3348 1.5856,-0.8423 2.2089,-1.4891 1.1008,-1.2113 1.6874,-2.8043 1.6353,-4.4415 0.0038,-0.394 -0.0278,-0.7876 -0.0943,-1.176 z m 47.4988,1.47 c -0.2734,-0.8056 -0.7846,-1.5091 -1.466,-2.0172 -0.6814,-0.5081 -1.5009,-0.797 -2.3498,-0.8283 -0.5734,-0.0011 -1.141,0.1156 -1.6676,0.3429 -0.5266,0.2273 -1.0011,0.5603 -1.3941,0.9786 -0.393,0.4182 -0.6962,0.9128 -0.8908,1.453 -0.1947,0.5403 -0.2766,1.1148 -0.2407,1.688 -0.009,0.9585 0.2919,1.8942 0.8576,2.6673 0.5657,0.7731 1.366,1.3421 2.2813,1.6221 0.9152,0.28 1.8964,0.2559 2.7968,-0.0687 0.9005,-0.3246 1.6719,-0.9322 2.1991,-1.7322 l -1.52,-1.05 c -0.2266,0.3783 -0.548,0.6907 -0.9323,0.9062 -0.3844,0.2155 -0.8183,0.3266 -1.2587,0.3223 -0.4543,0.0188 -0.9038,-0.1005 -1.2892,-0.3423 -0.3854,-0.2417 -0.6888,-0.5946 -0.8703,-1.0122 l 5.9649,-2.4675 z m -6.0802,1.491 c -0.0212,-0.3261 0.0227,-0.6533 0.1293,-0.9622 0.1065,-0.3089 0.2735,-0.5935 0.4912,-0.8369 0.2177,-0.2435 0.4818,-0.441 0.7766,-0.581 0.2949,-0.14 0.6147,-0.2197 0.9407,-0.2344 0.3378,-0.0206 0.6741,0.059 0.9669,0.229 0.2927,0.17 0.5289,0.4227 0.6789,0.7265 z m -4.8431,4.326 h 1.9603 V 17.3752 H 86.622 Z m -3.2079,-7.665 h -0.0733 c -0.2929,-0.334 -0.6543,-0.6008 -1.0596,-0.782 -0.4053,-0.1812 -0.8449,-0.2726 -1.2887,-0.268 -1.1456,0.0557 -2.2259,0.5507 -3.017,1.3824 -0.7912,0.8318 -1.2325,1.9366 -1.2325,3.0854 0,1.1488 0.4413,2.2535 1.2325,3.0853 0.7911,0.8318 1.8714,1.3268 3.017,1.3824 0.4445,0.0089 0.8854,-0.0805 1.2913,-0.2621 0.406,-0.1815 0.7669,-0.4505 1.057,-0.7879 h 0.0733 v 0.6405 c 0,1.7115 -0.912,2.625 -2.3796,2.625 -0.4903,-0.0108 -0.9663,-0.1673 -1.3676,-0.4496 -0.4013,-0.2822 -0.7098,-0.6776 -0.8863,-1.1359 l -1.6983,0.7035 c 0.314,0.7899 0.8599,1.4657 1.5656,1.9381 0.7057,0.4725 1.5379,0.7193 2.3866,0.7079 2.2958,0 4.1932,-1.3545 4.1932,-4.6515 v -7.9485 h -1.8136 z m -2.2538,6.174 c -0.6869,-0.0429 -1.3316,-0.3464 -1.8028,-0.8487 -0.4712,-0.5024 -0.7336,-1.1657 -0.7336,-1.855 0,-0.6893 0.2624,-1.3527 0.7336,-1.855 0.4712,-0.5024 1.1159,-0.8059 1.8028,-0.8488 0.3357,0.0145 0.665,0.0965 0.9685,0.2411 0.3034,0.1446 0.5747,0.3489 0.7977,0.6007 0.223,0.2517 0.3931,0.5459 0.5003,0.8648 0.1072,0.319 0.1492,0.6563 0.1236,0.9919 0.0286,0.3367 -0.0113,0.6758 -0.1172,0.9966 -0.106,0.3209 -0.2758,0.6169 -0.4992,0.8701 -0.2235,0.2532 -0.4958,0.4584 -0.8007,0.6032 -0.3049,0.1448 -0.6359,0.2261 -0.973,0.2391 z m 25.5687,-11.634 h -4.697 v 13.125 h 1.96 v -4.977 h 2.737 c 0.558,0.0402 1.119,-0.0353 1.647,-0.2218 0.529,-0.1865 1.013,-0.4801 1.423,-0.8623 0.41,-0.3823 0.737,-0.845 0.961,-1.3594 0.223,-0.5144 0.339,-1.0694 0.339,-1.6305 0,-0.561 -0.116,-1.1161 -0.339,-1.6305 -0.224,-0.5144 -0.551,-0.9771 -0.961,-1.3594 -0.41,-0.3822 -0.894,-0.6757 -1.423,-0.8623 -0.528,-0.1865 -1.089,-0.262 -1.647,-0.2218 z m 0,6.3 h -2.737 v -4.473 h 2.778 c 0.295,0 0.587,0.0581 0.859,0.1711 0.272,0.1129 0.519,0.2784 0.728,0.487 0.208,0.2087 0.373,0.4564 0.486,0.729 0.113,0.2726 0.171,0.5648 0.171,0.8599 0,0.2951 -0.058,0.5873 -0.171,0.8599 -0.113,0.2726 -0.278,0.5203 -0.486,0.729 -0.209,0.2086 -0.456,0.3741 -0.728,0.4871 -0.272,0.1129 -0.564,0.171 -0.859,0.171 z m 12.097,-1.8795 c -0.714,-0.0441 -1.425,0.1224 -2.045,0.4788 -0.621,0.3565 -1.123,0.8872 -1.446,1.5267 l 1.73,0.7245 c 0.175,-0.3156 0.437,-0.5738 0.755,-0.7434 0.318,-0.1695 0.678,-0.2432 1.037,-0.2121 0.249,-0.0291 0.501,-0.0083 0.742,0.0613 0.241,0.0695 0.465,0.1863 0.661,0.3437 0.195,0.1574 0.357,0.3521 0.476,0.5728 0.119,0.2207 0.193,0.463 0.218,0.7127 v 0.126 c -0.63,-0.3319 -1.332,-0.5049 -2.044,-0.504 -1.866,0 -3.774,1.05 -3.774,2.961 0.018,0.4062 0.118,0.8045 0.293,1.1713 0.175,0.3668 0.422,0.6947 0.727,0.964 0.304,0.2693 0.659,0.4747 1.044,0.6039 0.385,0.1293 0.791,0.1797 1.196,0.1483 0.492,0.0273 0.982,-0.077 1.421,-0.3021 0.438,-0.2251 0.809,-0.563 1.074,-0.9789 h 0.063 v 1.05 h 1.887 v -5.0505 c 0,-2.2995 -1.74,-3.633 -3.973,-3.633 z m -0.241,7.1925 c -0.64,0 -1.531,-0.3255 -1.531,-1.113 0,-1.05 1.112,-1.407 2.097,-1.407 0.623,-0.0154 1.238,0.1369 1.782,0.441 -0.066,0.5702 -0.336,1.0972 -0.76,1.4834 -0.424,0.3861 -0.973,0.6052 -1.546,0.6166 z m 11.133,-6.888 -2.243,5.691 h -0.063 l -2.328,-5.691 h -2.096 l 3.491,7.959 -1.992,4.4205 h 2.044 l 5.367,-12.3795 z m -17.612,8.4 h 1.95 v -13.125 h -1.95 z"
     id="path4"
     style="fill:#ffffff" />
  <path
     d="m 10.9445,6.91725 c -0.3455,0.4091 -0.5217,0.93499 -0.4927,1.47 V 31.6133 c -0.0357,0.5358 0.1414,1.0642 0.4927,1.4699 l 0.0734,0.0841 12.9885,-13.0096 V 19.8428 L 11.0179,6.84375 Z"
     id="path6"
     style="fill:url(#paint0_linear_267_4962)" />
  <path
     d="m 28.3039,24.4939 -4.298,-4.3365 v -0.315 l 4.298,-4.3365 0.0944,0.063 5.1472,2.919 c 1.4676,0.8295 1.4676,2.1945 0,3.0345 l -5.1263,2.919 z"
     id="path8"
     style="fill:url(#paint1_linear_267_4962)" />
  <path
     d="M 28.4311,24.431 24.0072,20 10.9453,33.083 c 0.2962,0.2641 0.6754,0.416 1.0718,0.4295 0.3963,0.0134 0.7849,-0.1125 1.0982,-0.356 L 28.4311,24.431"
     id="path10"
     style="fill:url(#paint2_linear_267_4962)" />
  <path
     d="M 28.4311,15.5693 13.1153,6.85428 C 12.804,6.60744 12.4157,6.47845 12.0189,6.48997 11.622,6.50149 11.2418,6.6528 10.9453,6.91729 L 24.0072,20.0003 Z"
     id="path12"
     style="fill:url(#paint3_linear_267_4962)" />
  <path
     d="m 28.3053,24.3359 -15.19,8.6625 c -0.302,0.2283 -0.67,0.3518 -1.0483,0.3518 -0.3783,0 -0.7463,-0.1235 -1.0483,-0.3518 v 0 l -0.0734,0.0735 0.0734,0.084 c 0.302,0.2283 0.67,0.3518 1.0483,0.3518 0.3783,0 0.7463,-0.1235 1.0483,-0.3518 l 15.3158,-8.7255 z"
     id="path14"
     style="opacity:0.2;fill:#000000" />
  <path
     d="m 10.9438,32.9356 c -0.3367,-0.4165 -0.5017,-0.9462 -0.4612,-1.4805 v 0.1575 c -0.0357,0.5359 0.1414,1.0642 0.4927,1.47 l 0.0734,-0.0735 z"
     id="path16"
     style="opacity:0.12000002;fill:#000000" />
  <path
     d="m 33.5462,21.365 -5.2415,2.9715 0.0943,0.0945 5.1472,-2.919 c 0.3039,-0.1287 0.5674,-0.337 0.763,-0.6031 0.1955,-0.2661 0.3159,-0.5801 0.3482,-0.9089 -0.0655,0.2988 -0.2002,0.578 -0.3932,0.8151 -0.193,0.2371 -0.439,0.4254 -0.718,0.5499 z"
     id="path18"
     style="opacity:0.12000002;fill:#000000" />
  <path
     d="M 13.1139,7.00142 33.5454,18.6354 c 0.279,0.1245 0.525,0.3128 0.718,0.5499 0.193,0.2371 0.3277,0.5163 0.3932,0.8151 -0.0324,-0.3288 -0.1527,-0.6428 -0.3482,-0.9089 -0.1956,-0.2661 -0.4591,-0.4744 -0.763,-0.6031 L 13.1139,6.85442 c -1.4572,-0.84 -2.6627,-0.147 -2.6627,1.533 v 0.1575 c 0.0314,-1.68 1.2055,-2.373 2.6627,-1.5435 z"
     id="path20"
     style="opacity:0.25;fill:#ffffff" />
  <path
     d="m 44.1451,13.9831 h -0.7652 v -2.1 h 0.6499 c 0.2925,-0.318 0.5124,-0.6958 0.6445,-1.1074 0.1321,-0.4116 0.1734,-0.847 0.1208,-1.2761 V 6.34961 h 4.1932 v 5.52299 h 0.7024 v 2.1 H 48.915 v -1.323 h -4.7699 z m 1.4572,-4.4835 c 0.0468,0.8435 -0.1615,1.6814 -0.5975,2.4045 h 3.1449 V 7.12661 h -2.5474 z"
     stroke-miterlimit="10"
     id="path22"
     style="fill:#ffffff;stroke:#ffffff;stroke-width:0.37609899;stroke-miterlimit:10" />
  <path
     d="m 55.9907,11.8314 c -0.3019,0.3032 -0.6605,0.5437 -1.0554,0.7079 -0.3948,0.1641 -0.8181,0.2486 -1.2457,0.2486 -0.4275,0 -0.8508,-0.0845 -1.2456,-0.2486 -0.3949,-0.1642 -0.7535,-0.4047 -1.0554,-0.7079 -0.5997,-0.6274 -0.9345,-1.4624 -0.9345,-2.331 0,-0.8686 0.3348,-1.70365 0.9345,-2.33102 0.3019,-0.30319 0.6605,-0.54374 1.0554,-0.70787 0.3948,-0.16413 0.8181,-0.24862 1.2456,-0.24862 0.4276,0 0.8509,0.08449 1.2457,0.24862 0.3949,0.16413 0.7535,0.40468 1.0554,0.70787 0.3028,0.3066 0.5414,0.67077 0.7016,1.07108 0.1602,0.40032 0.2389,0.82874 0.2314,1.25994 0.0124,0.4318 -0.0641,0.8616 -0.2246,1.2626 -0.1605,0.401 -0.4016,0.7647 -0.7084,1.0684 z m -4.015,-0.525 c 0.2209,0.2298 0.4865,0.4117 0.7804,0.5345 0.2939,0.1228 0.6099,0.1839 0.9283,0.1795 0.3187,0.0063 0.6352,-0.0539 0.9294,-0.1768 0.2942,-0.123 0.5596,-0.3059 0.7794,-0.5372 0.4523,-0.4923 0.7034,-1.137 0.7034,-1.806 0,-0.66908 -0.2511,-1.3137 -0.7034,-1.80602 C 55.1734,7.46307 54.908,7.28013 54.6138,7.1572 54.3196,7.03427 54.0031,6.97405 53.6844,6.98038 53.366,6.97595 53.05,7.03704 52.7561,7.15985 52.4622,7.28267 52.1966,7.4646 51.9757,7.69438 51.53,8.18999 51.2833,8.83337 51.2833,9.5004 c 0,0.667 0.2467,1.3104 0.6924,1.806 z"
     stroke-miterlimit="10"
     id="path24"
     style="fill:#ffffff;stroke:#ffffff;stroke-width:0.37609899;stroke-miterlimit:10" />
  <path
     d="m 60.9905,12.7862 c -0.4242,0.0067 -0.8453,-0.0727 -1.238,-0.2333 -0.3928,-0.1606 -0.749,-0.3991 -1.0473,-0.7012 -0.6049,-0.6331 -0.9425,-1.4757 -0.9425,-2.352 0,-0.87631 0.3376,-1.71883 0.9425,-2.35199 0.3032,-0.30729 0.6663,-0.54882 1.0666,-0.70959 0.4004,-0.16076 0.8295,-0.23732 1.2606,-0.22491 0.4389,-0.01243 0.8748,0.0757 1.2745,0.25767 0.3997,0.18197 0.7526,0.45297 1.0318,0.79233 l -0.5556,0.546 C 62.5772,7.544 62.3107,7.33216 62.0061,7.19148 61.7014,7.05079 61.3675,6.98537 61.0324,7.00071 60.7098,6.99247 60.3888,7.05065 60.0895,7.17166 59.7902,7.29267 59.5188,7.47393 59.2922,7.70421 58.8407,8.20109 58.5904,8.84882 58.5904,9.5207 c 0,0.6719 0.2503,1.3196 0.7018,1.8165 0.2266,0.2303 0.498,0.4116 0.7973,0.5326 0.2993,0.121 0.6203,0.1792 0.9429,0.1709 0.3602,-0.0102 0.7139,-0.0992 1.0362,-0.2606 0.3223,-0.1614 0.6055,-0.3914 0.8298,-0.6739 l 0.5661,0.5565 c -0.2872,0.3447 -0.6446,0.624 -1.0483,0.819 -0.446,0.2087 -0.9335,0.3128 -1.4257,0.3045 z"
     stroke-miterlimit="10"
     id="path26"
     style="fill:#ffffff;stroke:#ffffff;stroke-width:0.37609899;stroke-miterlimit:10" />
  <path
     d="M 66.7568,12.6496 H 65.9496 V 7.12661 h -1.7611 v -0.777 h 4.319 v 0.777 h -1.7507 z"
     stroke-miterlimit="10"
     id="path28"
     style="fill:#ffffff;stroke:#ffffff;stroke-width:0.37609899;stroke-miterlimit:10" />
  <path
     d="m 74.0632,6.34961 -2.3797,5.31299 c -0.0577,0.213 -0.1609,0.4109 -0.3026,0.58 -0.1417,0.1691 -0.3183,0.3053 -0.5178,0.3992 -0.1994,0.0938 -0.4169,0.1432 -0.6372,0.1445 -0.2204,0.0014 -0.4384,-0.0453 -0.639,-0.1367 l 0.2097,-0.7455 c 0.1282,0.0722 0.2722,0.1119 0.4193,0.1155 0.1551,0.0078 0.3089,-0.0325 0.4403,-0.1155 0.1273,-0.1061 0.2249,-0.2436 0.283,-0.399 l 0.2307,-0.504 -2.0967,-4.65149 h 0.954 l 1.5515,3.61199 1.5305,-3.61199 z"
     stroke-miterlimit="10"
     id="path30"
     style="fill:#ffffff;stroke:#ffffff;stroke-width:0.37609899;stroke-miterlimit:10" />
  <path
     d="M 74.9756,12.6496 V 6.34961 h 4.5497 V 12.6496 H 78.7181 V 7.12661 h -2.9353 v 5.52299 z"
     stroke-miterlimit="10"
     id="path32"
     style="fill:#ffffff;stroke:#ffffff;stroke-width:0.37609899;stroke-miterlimit:10" />
  <path
     d="M 80.96,12.6496 V 6.34961 h 0.8072 V 9.0481 h 3.1449 V 6.34961 h 0.8177 V 12.6496 H 84.9121 V 9.8041 h -3.1449 v 2.8455 z"
     stroke-miterlimit="10"
     id="path34"
     style="fill:#ffffff;stroke:#ffffff;stroke-width:0.37609899;stroke-miterlimit:10" />
  <path
     d="m 92.3146,11.8314 c -0.3027,0.3035 -0.6622,0.5443 -1.058,0.7085 -0.3957,0.1643 -0.8199,0.2489 -1.2482,0.2489 -0.4284,0 -0.8526,-0.0846 -1.2483,-0.2489 -0.3957,-0.1642 -0.7552,-0.405 -1.058,-0.7085 -0.5997,-0.6274 -0.9345,-1.4624 -0.9345,-2.331 0,-0.8686 0.3348,-1.70365 0.9345,-2.33102 0.3019,-0.30319 0.6605,-0.54374 1.0554,-0.70787 0.3948,-0.16413 0.8181,-0.24862 1.2456,-0.24862 0.4275,0 0.8508,0.08449 1.2457,0.24862 0.3948,0.16413 0.7535,0.40468 1.0554,0.70787 0.5949,0.62981 0.9265,1.46394 0.9265,2.33102 0,0.867 -0.3316,1.7012 -0.9265,2.331 z m -4.015,-0.525 c 0.2198,0.2313 0.4852,0.4142 0.7793,0.5372 0.2942,0.1229 0.6108,0.1831 0.9295,0.1768 0.3184,0.0044 0.6344,-0.0567 0.9283,-0.1795 0.2939,-0.1228 0.5595,-0.3047 0.7804,-0.5345 0.4457,-0.4956 0.6923,-1.139 0.6923,-1.806 0,-0.66703 -0.2466,-1.31041 -0.6923,-1.80602 C 91.4962,7.4646 91.2306,7.28267 90.9367,7.15985 90.6428,7.03704 90.3268,6.97595 90.0084,6.98038 89.6897,6.97405 89.3731,7.03427 89.0789,7.1572 88.7848,7.28013 88.5194,7.46307 88.2996,7.69438 87.8473,8.1867 87.5962,8.83132 87.5962,9.5004 c 0,0.669 0.2511,1.3137 0.7034,1.806 z"
     stroke-miterlimit="10"
     id="path36"
     style="fill:#ffffff;stroke:#ffffff;stroke-width:0.37609899;stroke-miterlimit:10" />
  <path
     d="m 96.5391,12.6497 v -6.3 h 2.2748 c 0.4716,-0.00474 0.9279,0.16758 1.2791,0.483 0.175,0.15227 0.315,0.34123 0.409,0.55352 0.094,0.21229 0.14,0.44272 0.136,0.67498 0.002,0.28285 -0.078,0.56025 -0.231,0.798 -0.154,0.2254 -0.369,0.4035 -0.6182,0.5145 v 0 c 0.3022,0.1037 0.5682,0.2934 0.7652,0.546 0.193,0.2573 0.296,0.5709 0.294,0.8925 0.005,0.2421 -0.043,0.4823 -0.141,0.7037 -0.098,0.2214 -0.243,0.4185 -0.425,0.5773 -0.3643,0.3391 -0.8454,0.5236 -1.3423,0.5145 z m 0.8072,-3.6015 h 1.4676 C 98.9512,9.0562 99.0886,9.0329 99.2156,8.98017 99.3427,8.92744 99.4562,8.8466 99.5477,8.74371 99.7255,8.56923 99.8272,8.33147 99.8308,8.0822 99.8407,7.83216 99.7544,7.58786 99.5896,7.3997 99.5015,7.30178 99.3928,7.22463 99.2714,7.1738 99.1499,7.12297 99.0188,7.09971 98.8873,7.1057 h -1.5096 z m 0,2.8245 h 1.6353 c 0.142,0.0048 0.2833,-0.0219 0.4138,-0.0782 0.1304,-0.0563 0.2469,-0.1407 0.341,-0.2473 0.181,-0.1936 0.2826,-0.4487 0.2826,-0.714 -0.006,-0.263 -0.1107,-0.5141 -0.2931,-0.7035 C 99.6249,10.0234 99.5027,9.9395 99.3673,9.8835 99.2318,9.8274 99.0862,9.8004 98.9397,9.8042 h -1.5934 z"
     stroke-miterlimit="10"
     id="path38"
     style="fill:#ffffff;stroke:#ffffff;stroke-width:0.37609899;stroke-miterlimit:10" />
  <defs
     id="defs78">
    <linearGradient
       id="paint0_linear_267_4962"
       x1="22.8533"
       y1="9.14575"
       x2="5.2343001"
       y2="26.736401"
       gradientUnits="userSpaceOnUse"
       gradientTransform="translate(0,-1)">
      <stop
         stop-color="#00A0FF"
         id="stop40" />
      <stop
         offset="0.01"
         stop-color="#00A1FF"
         id="stop42" />
      <stop
         offset="0.26"
         stop-color="#00BEFF"
         id="stop44" />
      <stop
         offset="0.51"
         stop-color="#00D2FF"
         id="stop46" />
      <stop
         offset="0.76"
         stop-color="#00DFFF"
         id="stop48" />
      <stop
         offset="1"
         stop-color="#00E3FF"
         id="stop50" />
    </linearGradient>
    <linearGradient
       id="paint1_linear_267_4962"
       x1="35.463902"
       y1="20.999901"
       x2="10.1053"
       y2="20.999901"
       gradientUnits="userSpaceOnUse"
       gradientTransform="translate(0,-1)">
      <stop
         stop-color="#FFE000"
         id="stop53" />
      <stop
         offset="0.41"
         stop-color="#FFBD00"
         id="stop55" />
      <stop
         offset="0.78"
         stop-color="#FFA500"
         id="stop57" />
      <stop
         offset="1"
         stop-color="#FF9C00"
         id="stop59" />
    </linearGradient>
    <linearGradient
       id="paint2_linear_267_4962"
       x1="26.0305"
       y1="23.415001"
       x2="2.13253"
       y2="47.264"
       gradientUnits="userSpaceOnUse"
       gradientTransform="translate(0,-1)">
      <stop
         stop-color="#FF3A44"
         id="stop62" />
      <stop
         offset="1"
         stop-color="#C31162"
         id="stop64" />
    </linearGradient>
    <linearGradient
       id="paint3_linear_267_4962"
       x1="7.6536198"
       y1="0.18928701"
       x2="18.3216"
       y2="10.8401"
       gradientUnits="userSpaceOnUse"
       gradientTransform="translate(0,-1)">
      <stop
         stop-color="#32A071"
         id="stop67" />
      <stop
         offset="0.07"
         stop-color="#2DA771"
         id="stop69" />
      <stop
         offset="0.48"
         stop-color="#15CF74"
         id="stop71" />
      <stop
         offset="0.8"
         stop-color="#06E775"
         id="stop73" />
      <stop
         offset="1"
         stop-color="#00F076"
         id="stop75" />
    </linearGradient>
  </defs>
</svg>
