<svg width="125" height="42" viewBox="0 0 125 42" fill="none" xmlns="http://www.w3.org/2000/svg">
<path d="M8.41414 41.0814C8.09332 41.0814 7.78026 41.0773 7.46197 41.0702C6.80259 41.0616 6.14476 41.0044 5.49386 40.899C4.88693 40.7947 4.29898 40.6008 3.7494 40.3237C3.20486 40.0488 2.70819 39.6884 2.27843 39.2562C1.84245 38.8292 1.47947 38.3338 1.20389 37.7899C0.925267 37.2424 0.732444 36.6556 0.632137 36.0498C0.523815 35.399 0.465208 34.7408 0.456821 34.0811C0.450146 33.8596 0.441406 33.1223 0.441406 33.1223V8.86675C0.441406 8.86675 0.450714 8.14077 0.456874 7.92748C0.464904 7.2688 0.52317 6.61168 0.631169 5.96181C0.731661 5.35441 0.924632 4.76588 1.2034 4.21661C1.47798 3.67304 1.83894 3.17735 2.27229 2.74876C2.70516 2.3161 3.20342 1.95383 3.74888 1.67517C4.2972 1.39889 4.88404 1.20636 5.48974 1.10403C6.14278 0.997523 6.8029 0.939941 7.46456 0.931766L8.41465 0.918945H116.625L117.586 0.93228C118.242 0.940049 118.896 0.997118 119.543 1.103C120.155 1.20662 120.748 1.40049 121.302 1.67824C122.395 2.23983 123.284 3.12832 123.845 4.21917C124.119 4.76465 124.309 5.34838 124.409 5.95053C124.518 6.60574 124.579 7.26802 124.592 7.93211C124.595 8.22947 124.595 8.54887 124.595 8.86675C124.603 9.2605 124.603 9.63528 124.603 10.0131V31.9882C124.603 32.3697 124.603 32.7419 124.595 33.1172C124.595 33.4587 124.595 33.7714 124.591 34.0934C124.578 34.7456 124.518 35.3961 124.411 36.0396C124.312 36.6497 124.121 37.2411 123.842 37.7931C123.564 38.3311 123.204 38.8221 122.773 39.248C122.342 39.6825 121.845 40.045 121.299 40.3217C120.746 40.601 120.154 40.7956 119.543 40.899C118.892 41.005 118.234 41.0622 117.575 41.0702C117.266 41.0773 116.943 41.0814 116.63 41.0814L115.488 41.0835L8.41414 41.0814Z" fill="black"/>
<path d="M25.6013 21.3159C25.6126 20.4395 25.8461 19.5802 26.2799 18.818C26.7138 18.0557 27.3339 17.4153 28.0826 16.9563C27.607 16.2789 26.9795 15.7214 26.25 15.3281C25.5205 14.9348 24.709 14.7166 23.8802 14.6907C22.112 14.5056 20.3979 15.7458 19.4968 15.7458C18.5784 15.7458 17.1911 14.7091 15.6973 14.7397C14.731 14.7709 13.7893 15.0511 12.9639 15.553C12.1386 16.055 11.4576 16.7616 10.9875 17.604C8.95113 21.1198 10.4701 26.2869 12.4208 29.1289C13.3968 30.5205 14.5374 32.075 16.0299 32.0198C17.4904 31.9594 18.0359 31.0911 19.7988 31.0911C21.5454 31.0911 22.0572 32.0198 23.58 31.9848C25.1472 31.9594 26.1346 30.587 27.0763 29.1822C27.7775 28.1906 28.3171 27.0947 28.6751 25.9351C27.7646 25.551 26.9876 24.9083 26.441 24.0868C25.8944 23.2654 25.6024 22.3017 25.6013 21.3159V21.3159Z" fill="white"/>
<path d="M22.7251 12.8214C23.5796 11.7985 24.0006 10.4837 23.8986 9.15625C22.5931 9.29298 21.3872 9.91517 20.5212 10.8988C20.0978 11.3794 19.7735 11.9384 19.5668 12.5441C19.3602 13.1497 19.2753 13.7899 19.3169 14.4283C19.9699 14.435 20.6159 14.2939 21.2063 14.0155C21.7966 13.7372 22.3159 13.3289 22.7251 12.8214Z" fill="white"/>
<path d="M44.0625 28.497H39.0784L37.8815 32.0213H35.7705L40.4913 18.9824H42.6846L47.4054 32.0213H45.2583L44.0625 28.497ZM39.5946 26.8708H43.5453L41.5978 21.1511H41.5432L39.5946 26.8708Z" fill="white"/>
<path d="M57.6 27.268C57.6 30.2222 56.0144 32.1202 53.6217 32.1202C53.0155 32.1518 52.4127 32.0126 51.8822 31.7184C51.3518 31.4243 50.9151 30.9871 50.6222 30.457H50.5769V35.1656H48.6201V22.5143H50.5142V24.0955H50.5502C50.8566 23.5679 51.3006 23.133 51.8351 22.837C52.3696 22.5411 52.9746 22.3952 53.5857 22.4148C56.0051 22.4148 57.6 24.3221 57.6 27.268ZM55.5887 27.268C55.5887 25.3434 54.5913 24.078 53.0695 24.078C51.5744 24.078 50.5687 25.37 50.5687 27.268C50.5687 29.1835 51.5744 30.4662 53.0695 30.4662C54.5913 30.4662 55.5887 29.2101 55.5887 27.268Z" fill="white"/>
<path d="M68.0932 27.268C68.0932 30.2222 66.5076 32.1202 64.1148 32.1202C63.5087 32.1518 62.9059 32.0125 62.3754 31.7184C61.8449 31.4243 61.4083 30.9871 61.1154 30.457H61.0701V35.1656H59.1133V22.5143H61.0073V24.0954H61.0433C61.3497 23.5679 61.7938 23.133 62.3283 22.837C62.8628 22.5411 63.4677 22.3952 64.0788 22.4148C66.4983 22.4148 68.0932 24.3221 68.0932 27.268ZM66.0819 27.268C66.0819 25.3434 65.0845 24.078 63.5626 24.078C62.0675 24.078 61.0619 25.37 61.0619 27.268C61.0619 29.1834 62.0675 30.4662 63.5626 30.4662C65.0845 30.4662 66.0819 29.2101 66.0819 27.268H66.0819Z" fill="white"/>
<path d="M75.0275 28.388C75.1725 29.681 76.4321 30.53 78.1535 30.53C79.8028 30.53 80.9894 29.681 80.9894 28.5151C80.9894 27.503 80.2737 26.897 78.5792 26.4817L76.8846 26.0747C74.4836 25.4963 73.3689 24.3766 73.3689 22.5596C73.3689 20.3099 75.335 18.7646 78.1267 18.7646C80.8897 18.7646 82.7838 20.3099 82.8475 22.5596H80.8722C80.7539 21.2584 79.6753 20.473 78.0989 20.473C76.5226 20.473 75.4439 21.2676 75.4439 22.4243C75.4439 23.3461 76.1329 23.8885 77.8182 24.3038L79.2588 24.6565C81.9416 25.2892 83.0562 26.3638 83.0562 28.271C83.0562 30.7104 81.1076 32.2382 78.0084 32.2382C75.1087 32.2382 73.1509 30.7463 73.0244 28.3879L75.0275 28.388Z" fill="white"/>
<path d="M87.2789 20.2646V22.5144H89.0918V24.0596H87.2789V29.3004C87.2789 30.1145 87.6419 30.4939 88.4388 30.4939C88.654 30.4902 88.8689 30.4751 89.0825 30.4488V31.9848C88.7242 32.0516 88.36 32.0818 87.9956 32.0751C86.0656 32.0751 85.3129 31.3522 85.3129 29.5085V24.0596H83.9268V22.5144H85.3128V20.2646H87.2789Z" fill="white"/>
<path d="M90.1436 27.2681C90.1436 24.277 91.9101 22.3975 94.6649 22.3975C97.4288 22.3975 99.1872 24.277 99.1872 27.2681C99.1872 30.2673 97.4381 32.1387 94.6649 32.1387C91.8926 32.1387 90.1436 30.2673 90.1436 27.2681ZM97.1934 27.2681C97.1934 25.2163 96.2504 24.0053 94.6648 24.0053C93.0793 24.0053 92.1374 25.2255 92.1374 27.2681C92.1374 29.3281 93.0793 30.5298 94.6648 30.5298C96.2504 30.5298 97.1933 29.3281 97.1933 27.2681H97.1934Z" fill="white"/>
<path d="M100.8 22.5142H102.666V24.1323H102.711C102.838 23.6269 103.135 23.1803 103.552 22.8675C103.97 22.5548 104.483 22.3949 105.004 22.4147C105.23 22.414 105.455 22.4384 105.675 22.4875V24.3127C105.39 24.226 105.093 24.1862 104.796 24.1948C104.511 24.1833 104.228 24.2333 103.965 24.3413C103.702 24.4494 103.465 24.6129 103.272 24.8207C103.078 25.0285 102.932 25.2756 102.843 25.5451C102.754 25.8146 102.724 26.1001 102.757 26.382V32.0206H100.8L100.8 22.5142Z" fill="white"/>
<path d="M114.696 29.2286C114.433 30.9543 112.748 32.1387 110.591 32.1387C107.818 32.1387 106.097 30.2858 106.097 27.3132C106.097 24.3313 107.827 22.3975 110.509 22.3975C113.146 22.3975 114.805 24.2042 114.805 27.0866V27.7551H108.072V27.873C108.041 28.2229 108.085 28.5754 108.201 28.907C108.317 29.2386 108.502 29.5418 108.745 29.7965C108.987 30.0512 109.282 30.2515 109.608 30.3841C109.934 30.5167 110.285 30.5786 110.636 30.5657C111.099 30.6089 111.563 30.5021 111.96 30.2612C112.356 30.0203 112.664 29.6581 112.838 29.2286L114.696 29.2286ZM108.081 26.3914H112.847C112.865 26.0768 112.817 25.762 112.707 25.4667C112.597 25.1714 112.426 24.9021 112.207 24.6755C111.987 24.449 111.723 24.2701 111.431 24.1502C111.139 24.0303 110.825 23.9718 110.509 23.9786C110.19 23.9767 109.874 24.0378 109.58 24.1582C109.285 24.2787 109.017 24.4562 108.791 24.6806C108.565 24.9049 108.386 25.1715 108.265 25.4652C108.143 25.7588 108.08 26.0736 108.081 26.3914V26.3914Z" fill="white"/>
<path d="M38.2054 11.8163H39.0455C39.1901 11.8342 39.3369 11.8221 39.4766 11.7807C39.6163 11.7393 39.7459 11.6694 39.8572 11.5756C39.9684 11.4818 40.059 11.366 40.1232 11.2355C40.1874 11.105 40.2238 10.9627 40.2301 10.8175C40.2301 10.2397 39.7941 9.86648 39.0548 9.86648C38.9066 9.84583 38.7558 9.855 38.6112 9.89344C38.4667 9.93188 38.3313 9.99881 38.2131 10.0903C38.095 10.1818 37.9963 10.2959 37.9231 10.426C37.8499 10.5561 37.8036 10.6995 37.7869 10.8478H36.8645C36.8804 10.5787 36.9517 10.3157 37.0739 10.0752C37.1961 9.83476 37.3666 9.62196 37.5749 9.45008C37.7831 9.27819 38.0246 9.15089 38.2844 9.07611C38.5441 9.00132 38.8165 8.98066 39.0846 9.0154C40.3216 9.0154 41.1926 9.706 41.1926 10.7001C41.1955 11.0332 41.0837 11.3571 40.876 11.6179C40.6683 11.8787 40.3771 12.0605 40.0512 12.1331V12.2069C40.4376 12.224 40.8015 12.393 41.0634 12.6769C41.3252 12.9608 41.4637 13.3365 41.4486 13.7219C41.42 13.999 41.3362 14.2676 41.2022 14.512C41.0681 14.7564 40.8865 14.9716 40.668 15.1451C40.4494 15.3186 40.1983 15.4468 39.9294 15.5223C39.6606 15.5977 39.3793 15.6189 39.1021 15.5846C38.8243 15.6223 38.5417 15.6039 38.2712 15.5305C38.0007 15.457 37.7478 15.33 37.5276 15.157C37.3074 14.984 37.1243 14.7686 36.9894 14.5235C36.8545 14.2784 36.7704 14.0088 36.7422 13.7307H37.6789C37.7355 14.33 38.2877 14.7166 39.1021 14.7166C39.9165 14.7166 40.4481 14.2824 40.4481 13.6702C40.4481 13.0493 39.9473 12.6669 39.0722 12.6669H38.2054V11.8163Z" fill="white"/>
<path d="M42.5117 14.0955C42.5117 13.2444 43.1482 12.7538 44.2752 12.684L45.5595 12.6102V12.2021C45.5595 11.7028 45.2294 11.4208 44.5888 11.4208C44.0665 11.4208 43.7055 11.612 43.6007 11.9463H42.6948C42.7904 11.1342 43.5575 10.6133 44.633 10.6133C45.8217 10.6133 46.4922 11.2034 46.4922 12.2021V15.4326H45.5904V14.7682H45.5163C45.3661 15.0065 45.155 15.2008 44.9048 15.3312C44.6546 15.4616 44.3742 15.5235 44.0922 15.5105C43.8931 15.5312 43.692 15.51 43.5016 15.4483C43.3113 15.3867 43.136 15.286 42.9871 15.1527C42.8382 15.0194 42.719 14.8564 42.6371 14.6743C42.5552 14.4922 42.5125 14.2951 42.5117 14.0955V14.0955ZM45.5595 13.6915V13.2962L44.4016 13.37C43.7487 13.4136 43.4525 13.6351 43.4525 14.0519C43.4525 14.4774 43.8227 14.7251 44.3317 14.7251C44.4809 14.7401 44.6316 14.7251 44.7748 14.6809C44.918 14.6367 45.0508 14.5643 45.1654 14.4678C45.2799 14.3714 45.3738 14.253 45.4415 14.1196C45.5093 13.9862 45.5494 13.8406 45.5595 13.6915V13.6915Z" fill="white"/>
<path d="M48.9777 11.4905V15.4332H48.042V10.7051H51.1639V11.4905L48.9777 11.4905Z" fill="white"/>
<path d="M56.833 13.0669C56.833 14.5691 56.0711 15.5109 54.8742 15.5109C54.5803 15.5309 54.2869 15.4668 54.0284 15.3261C53.7699 15.1854 53.5571 14.974 53.415 14.7167H53.341V17.0049H52.4053V10.7049H53.306V11.4863H53.376C53.5206 11.22 53.7362 10.9988 53.9989 10.8471C54.2617 10.6954 54.5614 10.619 54.8649 10.6265C56.071 10.6264 56.833 11.5642 56.833 13.0669ZM55.8705 13.0669C55.8705 12.0681 55.3965 11.4647 54.6037 11.4647C53.8161 11.4647 53.3235 12.081 53.3235 13.071C53.3235 14.0564 53.8161 14.6732 54.5996 14.6732C55.3965 14.6731 55.8705 14.0697 55.8705 13.0669Z" fill="white"/>
<path d="M58.08 17.1266V16.3232C58.1813 16.336 58.2833 16.3419 58.3854 16.3406C58.5847 16.3554 58.7825 16.2961 58.9408 16.1744C59.099 16.0526 59.2066 15.8768 59.2429 15.6808L59.3129 15.4506L57.5967 10.7051H58.6157L59.8044 14.4606H59.8784L61.063 10.7051H62.0553L60.2877 15.6285C59.8826 16.779 59.4343 17.1481 58.4677 17.1481C58.3895 17.1481 58.1674 17.1394 58.08 17.1266Z" fill="white"/>
<path d="M62.7842 14.0908H63.7158C63.8073 14.5076 64.1991 14.725 64.7471 14.725C65.3703 14.725 65.7528 14.4512 65.7528 14.0257C65.7528 13.5699 65.4094 13.3525 64.7471 13.3525H64.0376V12.6275H64.7348C65.3004 12.6275 65.5883 12.4107 65.5883 12.0154C65.5883 11.6683 65.3096 11.4032 64.7348 11.4032C64.2114 11.4032 63.8289 11.6247 63.7682 11.998H62.8664C62.9339 11.5691 63.1674 11.1837 63.5168 10.9248C63.8662 10.6658 64.3035 10.5539 64.7348 10.6132C65.8618 10.6132 66.5065 11.1213 66.5065 11.92C66.5118 12.1425 66.4403 12.36 66.304 12.5362C66.1678 12.7124 65.975 12.8366 65.7579 12.888V12.9618C66.0164 12.9951 66.2536 13.1218 66.4246 13.3179C66.5955 13.514 66.6884 13.7658 66.6854 14.0257C66.6854 14.9245 65.9183 15.5192 64.7471 15.5192C63.7117 15.5191 62.8706 15.0459 62.7842 14.0908Z" fill="white"/>
<path d="M68.0332 15.4332V10.7051H68.9607V13.9571H69.0347L71.2198 10.7051H72.1473V15.4332H71.2198V12.1637H71.1499L68.9607 15.4332L68.0332 15.4332Z" fill="white"/>
<path d="M77.2559 11.4905H75.7628V15.4331H74.8261V11.4905H73.333V10.7051H77.2559V11.4905Z" fill="white"/>
<path d="M82.2962 14.1561C82.1687 14.5882 81.893 14.9619 81.5173 15.2119C81.1416 15.4619 80.6898 15.5724 80.2407 15.524C79.9283 15.5322 79.6179 15.4725 79.331 15.3491C79.044 15.2257 78.7875 15.0415 78.5791 14.8093C78.3707 14.5771 78.2155 14.3025 78.1242 14.0045C78.0329 13.7065 78.0078 13.3922 78.0505 13.0835C78.0089 12.7739 78.0345 12.459 78.1256 12.1601C78.2166 11.8612 78.371 11.5853 78.5783 11.351C78.7856 11.1168 79.041 10.9297 79.3271 10.8024C79.6131 10.6752 79.9233 10.6107 80.2366 10.6134C81.5559 10.6134 82.3528 11.5122 82.3528 12.9969V13.3225H79.0047V13.3748C78.9899 13.5483 79.0117 13.723 79.0686 13.8877C79.1255 14.0523 79.2163 14.2033 79.3353 14.3309C79.4542 14.4584 79.5986 14.5598 79.7591 14.6284C79.9196 14.697 80.0928 14.7314 80.2675 14.7293C80.4911 14.7559 80.7177 14.7157 80.9184 14.6136C81.1191 14.5115 81.2848 14.3523 81.3944 14.1561L82.2962 14.1561ZM79.0047 12.6324H81.3985C81.4103 12.4738 81.3888 12.3144 81.3352 12.1646C81.2816 12.0148 81.1972 11.8779 81.0874 11.7625C80.9776 11.6472 80.8448 11.556 80.6976 11.4949C80.5503 11.4338 80.3919 11.404 80.2325 11.4075C80.0706 11.4053 79.9099 11.4355 79.7599 11.4963C79.6099 11.5571 79.4737 11.6472 79.3592 11.7614C79.2448 11.8756 79.1544 12.0115 79.0936 12.1611C79.0327 12.3107 79.0025 12.4709 79.0047 12.6324H79.0047Z" fill="white"/>
<path d="M86.2646 10.7051H88.4024C89.3299 10.7051 89.8739 11.1737 89.8739 11.9073C89.8753 12.1401 89.7965 12.3663 89.6507 12.5481C89.5049 12.73 89.3009 12.8563 89.0729 12.9061V12.9799C89.3498 12.9973 89.6094 13.1202 89.798 13.323C89.9867 13.5259 90.0901 13.7932 90.0867 14.0699C90.0867 14.8948 89.4646 15.4331 88.424 15.4331H86.2646V10.7051ZM87.1922 11.4213V12.6456H88.1197C88.6852 12.6456 88.9556 12.4287 88.9556 12.0288C88.9556 11.6602 88.7202 11.4213 88.2235 11.4213L87.1922 11.4213ZM87.1922 13.3316V14.7169H88.3017C88.8549 14.7169 89.1511 14.4734 89.1511 14.0263C89.1511 13.5531 88.8158 13.3316 88.1844 13.3316L87.1922 13.3316Z" fill="white"/>
</svg>
